<svg xmlns="http://www.w3.org/2000/svg" xmlns:xlink="http://www.w3.org/1999/xlink" width="200" zoomAndPan="magnify" viewBox="0 0 150 74.999997" height="100" preserveAspectRatio="xMidYMid meet" version="1.0"><defs><g/></defs><rect x="-15" width="180" fill="#ffffff" y="-7.5" height="89.999996" fill-opacity="1"/><rect x="-15" width="180" fill="#f2f5f9" y="-7.5" height="89.999996" fill-opacity="1"/><g fill="#000000" fill-opacity="1"><g transform="translate(20.279298, 47.249995)"><g><path d="M 5.5625 0.125 C 4.976562 0.125 4.554688 -0.00390625 4.296875 -0.265625 C 4.035156 -0.535156 3.90625 -1.039062 3.90625 -1.78125 C 3.90625 -2.269531 3.953125 -2.863281 4.046875 -3.5625 C 4.148438 -4.269531 4.320312 -5.335938 4.5625 -6.765625 C 4.59375 -6.960938 4.71875 -7.742188 4.9375 -9.109375 C 5.164062 -10.472656 5.367188 -11.910156 5.546875 -13.421875 C 5.703125 -14.703125 5.78125 -15.660156 5.78125 -16.296875 C 5.78125 -17.015625 5.515625 -17.375 4.984375 -17.375 C 4.585938 -17.375 4.085938 -17.160156 3.484375 -16.734375 C 2.890625 -16.316406 2.25 -15.644531 1.5625 -14.71875 C 1.332031 -14.40625 1.082031 -14.25 0.8125 -14.25 C 0.59375 -14.25 0.394531 -14.359375 0.21875 -14.578125 C 0.0507812 -14.796875 -0.03125 -15.039062 -0.03125 -15.3125 C -0.03125 -15.582031 0.015625 -15.84375 0.109375 -16.09375 C 0.210938 -16.34375 0.390625 -16.640625 0.640625 -16.984375 C 1.429688 -18.054688 2.304688 -18.882812 3.265625 -19.46875 C 4.222656 -20.0625 5.226562 -20.359375 6.28125 -20.359375 C 7.164062 -20.359375 7.828125 -20.082031 8.265625 -19.53125 C 8.703125 -18.988281 8.921875 -18.195312 8.921875 -17.15625 C 8.921875 -16.226562 8.796875 -14.882812 8.546875 -13.125 C 9.347656 -15.5 10.363281 -17.296875 11.59375 -18.515625 C 12.820312 -19.742188 14.269531 -20.359375 15.9375 -20.359375 C 17.25 -20.359375 18.234375 -19.984375 18.890625 -19.234375 C 19.554688 -18.492188 19.890625 -17.5 19.890625 -16.25 C 19.890625 -15.539062 19.785156 -14.6875 19.578125 -13.6875 L 18.125 -6.8125 C 17.957031 -6.007812 17.875 -5.320312 17.875 -4.75 C 17.875 -4.082031 18.03125 -3.578125 18.34375 -3.234375 C 18.65625 -2.898438 19.09375 -2.734375 19.65625 -2.734375 C 20.1875 -2.734375 20.703125 -2.910156 21.203125 -3.265625 C 21.703125 -3.617188 22.296875 -4.203125 22.984375 -5.015625 C 23.179688 -5.242188 23.398438 -5.359375 23.640625 -5.359375 C 23.847656 -5.359375 24.007812 -5.257812 24.125 -5.0625 C 24.25 -4.875 24.3125 -4.609375 24.3125 -4.265625 C 24.3125 -3.648438 24.160156 -3.15625 23.859375 -2.78125 C 23.023438 -1.769531 22.195312 -1.03125 21.375 -0.5625 C 20.5625 -0.101562 19.707031 0.125 18.8125 0.125 C 17.457031 0.125 16.394531 -0.273438 15.625 -1.078125 C 14.851562 -1.890625 14.46875 -2.976562 14.46875 -4.34375 C 14.46875 -4.875 14.507812 -5.453125 14.59375 -6.078125 C 14.6875 -6.703125 14.835938 -7.492188 15.046875 -8.453125 L 16.015625 -12.84375 C 16.046875 -12.988281 16.097656 -13.242188 16.171875 -13.609375 C 16.253906 -13.972656 16.316406 -14.316406 16.359375 -14.640625 C 16.410156 -14.972656 16.4375 -15.300781 16.4375 -15.625 C 16.4375 -16.132812 16.289062 -16.539062 16 -16.84375 C 15.71875 -17.144531 15.3125 -17.296875 14.78125 -17.296875 C 13.820312 -17.296875 12.863281 -16.785156 11.90625 -15.765625 C 10.945312 -14.742188 10.054688 -13.09375 9.234375 -10.8125 C 8.421875 -8.53125 7.78125 -5.613281 7.3125 -2.0625 C 7.207031 -1.25 7.046875 -0.679688 6.828125 -0.359375 C 6.609375 -0.0351562 6.1875 0.125 5.5625 0.125 Z M 5.5625 0.125 "/></g></g></g><g fill="#000000" fill-opacity="1"><g transform="translate(41.484913, 47.249995)"><g><path d="M 4.109375 0.125 C 3.109375 0.125 2.3125 -0.234375 1.71875 -0.953125 C 1.132812 -1.679688 0.84375 -2.628906 0.84375 -3.796875 C 0.84375 -5.078125 1.132812 -6.285156 1.71875 -7.421875 C 2.3125 -8.566406 3.097656 -9.488281 4.078125 -10.1875 C 5.066406 -10.882812 6.113281 -11.234375 7.21875 -11.234375 C 7.570312 -11.234375 7.804688 -11.164062 7.921875 -11.03125 C 8.046875 -10.894531 8.148438 -10.648438 8.234375 -10.296875 C 8.566406 -10.359375 8.914062 -10.390625 9.28125 -10.390625 C 10.070312 -10.390625 10.46875 -10.109375 10.46875 -9.546875 C 10.46875 -9.210938 10.347656 -8.414062 10.109375 -7.15625 C 9.734375 -5.3125 9.546875 -4.03125 9.546875 -3.3125 C 9.546875 -3.070312 9.601562 -2.878906 9.71875 -2.734375 C 9.84375 -2.585938 10.003906 -2.515625 10.203125 -2.515625 C 10.503906 -2.515625 10.867188 -2.710938 11.296875 -3.109375 C 11.734375 -3.503906 12.320312 -4.140625 13.0625 -5.015625 C 13.25 -5.242188 13.460938 -5.359375 13.703125 -5.359375 C 13.910156 -5.359375 14.070312 -5.257812 14.1875 -5.0625 C 14.3125 -4.875 14.375 -4.609375 14.375 -4.265625 C 14.375 -3.628906 14.222656 -3.132812 13.921875 -2.78125 C 13.265625 -1.96875 12.566406 -1.28125 11.828125 -0.71875 C 11.097656 -0.15625 10.390625 0.125 9.703125 0.125 C 9.171875 0.125 8.679688 -0.0507812 8.234375 -0.40625 C 7.796875 -0.769531 7.46875 -1.265625 7.25 -1.890625 C 6.414062 -0.546875 5.367188 0.125 4.109375 0.125 Z M 4.96875 -2.296875 C 5.320312 -2.296875 5.65625 -2.503906 5.96875 -2.921875 C 6.289062 -3.335938 6.523438 -3.890625 6.671875 -4.578125 L 7.5625 -9 C 6.882812 -8.976562 6.257812 -8.722656 5.6875 -8.234375 C 5.125 -7.753906 4.675781 -7.113281 4.34375 -6.3125 C 4.007812 -5.507812 3.84375 -4.660156 3.84375 -3.765625 C 3.84375 -3.273438 3.941406 -2.90625 4.140625 -2.65625 C 4.335938 -2.414062 4.613281 -2.296875 4.96875 -2.296875 Z M 4.96875 -2.296875 "/></g></g></g><g fill="#000000" fill-opacity="1"><g transform="translate(52.759391, 47.249995)"><g><path d="M 13.921875 -7.375 C 14.128906 -7.375 14.285156 -7.269531 14.390625 -7.0625 C 14.503906 -6.851562 14.5625 -6.585938 14.5625 -6.265625 C 14.5625 -5.859375 14.503906 -5.546875 14.390625 -5.328125 C 14.285156 -5.117188 14.113281 -4.972656 13.875 -4.890625 C 12.914062 -4.554688 11.859375 -4.363281 10.703125 -4.3125 C 10.378906 -2.988281 9.773438 -1.914062 8.890625 -1.09375 C 8.003906 -0.28125 7.023438 0.125 5.953125 0.125 C 4.335938 0.125 3.160156 -0.488281 2.421875 -1.71875 C 1.679688 -2.957031 1.3125 -4.742188 1.3125 -7.078125 C 1.3125 -9.140625 1.566406 -11.382812 2.078125 -13.8125 C 2.597656 -16.238281 3.347656 -18.300781 4.328125 -20 C 5.316406 -21.707031 6.488281 -22.5625 7.84375 -22.5625 C 8.582031 -22.5625 9.175781 -22.242188 9.625 -21.609375 C 10.070312 -20.972656 10.296875 -20.15625 10.296875 -19.15625 C 10.296875 -17.84375 10.046875 -16.535156 9.546875 -15.234375 C 9.054688 -13.941406 8.234375 -12.582031 7.078125 -11.15625 C 8.148438 -11.082031 9.019531 -10.640625 9.6875 -9.828125 C 10.363281 -9.015625 10.765625 -8.019531 10.890625 -6.84375 C 11.648438 -6.882812 12.546875 -7.039062 13.578125 -7.3125 C 13.679688 -7.351562 13.796875 -7.375 13.921875 -7.375 Z M 7.296875 -20.1875 C 6.972656 -20.1875 6.625 -19.707031 6.25 -18.75 C 5.875 -17.800781 5.523438 -16.507812 5.203125 -14.875 C 4.890625 -13.25 4.648438 -11.46875 4.484375 -9.53125 C 5.546875 -11.46875 6.390625 -13.175781 7.015625 -14.65625 C 7.648438 -16.132812 7.96875 -17.445312 7.96875 -18.59375 C 7.96875 -19.113281 7.90625 -19.507812 7.78125 -19.78125 C 7.664062 -20.050781 7.503906 -20.1875 7.296875 -20.1875 Z M 6.046875 -2.421875 C 6.546875 -2.421875 6.984375 -2.628906 7.359375 -3.046875 C 7.742188 -3.460938 8.003906 -4.0625 8.140625 -4.84375 C 7.640625 -5.1875 7.253906 -5.628906 6.984375 -6.171875 C 6.722656 -6.710938 6.59375 -7.285156 6.59375 -7.890625 C 6.59375 -8.117188 6.628906 -8.425781 6.703125 -8.8125 L 6.625 -8.8125 C 5.96875 -8.8125 5.414062 -8.484375 4.96875 -7.828125 C 4.53125 -7.179688 4.3125 -6.316406 4.3125 -5.234375 C 4.3125 -4.316406 4.484375 -3.617188 4.828125 -3.140625 C 5.179688 -2.660156 5.585938 -2.421875 6.046875 -2.421875 Z M 6.046875 -2.421875 "/></g></g></g><g fill="#000000" fill-opacity="1"><g transform="translate(64.105829, 47.249995)"><g><path d="M 11.859375 -5.359375 C 12.066406 -5.359375 12.226562 -5.257812 12.34375 -5.0625 C 12.46875 -4.875 12.53125 -4.609375 12.53125 -4.265625 C 12.53125 -3.628906 12.378906 -3.132812 12.078125 -2.78125 C 11.484375 -2.0625 10.644531 -1.394531 9.5625 -0.78125 C 8.476562 -0.175781 7.320312 0.125 6.09375 0.125 C 4.414062 0.125 3.113281 -0.328125 2.1875 -1.234375 C 1.257812 -2.148438 0.796875 -3.398438 0.796875 -4.984375 C 0.796875 -6.085938 1.023438 -7.113281 1.484375 -8.0625 C 1.953125 -9.019531 2.597656 -9.78125 3.421875 -10.34375 C 4.242188 -10.90625 5.175781 -11.1875 6.21875 -11.1875 C 7.144531 -11.1875 7.882812 -10.910156 8.4375 -10.359375 C 9 -9.804688 9.28125 -9.054688 9.28125 -8.109375 C 9.28125 -7.003906 8.882812 -6.054688 8.09375 -5.265625 C 7.300781 -4.472656 5.960938 -3.847656 4.078125 -3.390625 C 4.484375 -2.648438 5.242188 -2.28125 6.359375 -2.28125 C 7.078125 -2.28125 7.894531 -2.53125 8.8125 -3.03125 C 9.738281 -3.539062 10.535156 -4.203125 11.203125 -5.015625 C 11.398438 -5.242188 11.617188 -5.359375 11.859375 -5.359375 Z M 5.8125 -8.828125 C 5.21875 -8.828125 4.71875 -8.484375 4.3125 -7.796875 C 3.90625 -7.109375 3.703125 -6.273438 3.703125 -5.296875 L 3.703125 -5.25 C 4.640625 -5.476562 5.378906 -5.816406 5.921875 -6.265625 C 6.472656 -6.710938 6.75 -7.234375 6.75 -7.828125 C 6.75 -8.128906 6.660156 -8.367188 6.484375 -8.546875 C 6.316406 -8.734375 6.09375 -8.828125 5.8125 -8.828125 Z M 5.8125 -8.828125 "/></g></g></g><g fill="#000000" fill-opacity="1"><g transform="translate(73.533208, 47.249995)"><g><path d="M 11.859375 -5.359375 C 12.066406 -5.359375 12.226562 -5.257812 12.34375 -5.0625 C 12.46875 -4.875 12.53125 -4.609375 12.53125 -4.265625 C 12.53125 -3.628906 12.378906 -3.132812 12.078125 -2.78125 C 11.484375 -2.0625 10.644531 -1.394531 9.5625 -0.78125 C 8.476562 -0.175781 7.320312 0.125 6.09375 0.125 C 4.414062 0.125 3.113281 -0.328125 2.1875 -1.234375 C 1.257812 -2.148438 0.796875 -3.398438 0.796875 -4.984375 C 0.796875 -6.085938 1.023438 -7.113281 1.484375 -8.0625 C 1.953125 -9.019531 2.597656 -9.78125 3.421875 -10.34375 C 4.242188 -10.90625 5.175781 -11.1875 6.21875 -11.1875 C 7.144531 -11.1875 7.882812 -10.910156 8.4375 -10.359375 C 9 -9.804688 9.28125 -9.054688 9.28125 -8.109375 C 9.28125 -7.003906 8.882812 -6.054688 8.09375 -5.265625 C 7.300781 -4.472656 5.960938 -3.847656 4.078125 -3.390625 C 4.484375 -2.648438 5.242188 -2.28125 6.359375 -2.28125 C 7.078125 -2.28125 7.894531 -2.53125 8.8125 -3.03125 C 9.738281 -3.539062 10.535156 -4.203125 11.203125 -5.015625 C 11.398438 -5.242188 11.617188 -5.359375 11.859375 -5.359375 Z M 5.8125 -8.828125 C 5.21875 -8.828125 4.71875 -8.484375 4.3125 -7.796875 C 3.90625 -7.109375 3.703125 -6.273438 3.703125 -5.296875 L 3.703125 -5.25 C 4.640625 -5.476562 5.378906 -5.816406 5.921875 -6.265625 C 6.472656 -6.710938 6.75 -7.234375 6.75 -7.828125 C 6.75 -8.128906 6.660156 -8.367188 6.484375 -8.546875 C 6.316406 -8.734375 6.09375 -8.828125 5.8125 -8.828125 Z M 5.8125 -8.828125 "/></g></g></g><g fill="#000000" fill-opacity="1"><g transform="translate(82.960587, 47.249995)"><g><path d="M 10.25 -5.359375 C 10.457031 -5.359375 10.617188 -5.257812 10.734375 -5.0625 C 10.859375 -4.875 10.921875 -4.609375 10.921875 -4.265625 C 10.921875 -3.628906 10.769531 -3.132812 10.46875 -2.78125 C 9.78125 -1.9375 9.03125 -1.238281 8.21875 -0.6875 C 7.414062 -0.144531 6.5 0.125 5.46875 0.125 C 4.0625 0.125 3.015625 -0.515625 2.328125 -1.796875 C 1.648438 -3.078125 1.3125 -4.734375 1.3125 -6.765625 C 1.3125 -8.722656 1.5625 -10.945312 2.0625 -13.4375 C 2.570312 -15.9375 3.316406 -18.082031 4.296875 -19.875 C 5.285156 -21.664062 6.460938 -22.5625 7.828125 -22.5625 C 8.585938 -22.5625 9.1875 -22.203125 9.625 -21.484375 C 10.070312 -20.773438 10.296875 -19.757812 10.296875 -18.4375 C 10.296875 -16.53125 9.765625 -14.320312 8.703125 -11.8125 C 7.648438 -9.300781 6.222656 -6.8125 4.421875 -4.34375 C 4.523438 -3.6875 4.707031 -3.21875 4.96875 -2.9375 C 5.226562 -2.65625 5.5625 -2.515625 5.96875 -2.515625 C 6.625 -2.515625 7.203125 -2.703125 7.703125 -3.078125 C 8.203125 -3.453125 8.832031 -4.097656 9.59375 -5.015625 C 9.789062 -5.242188 10.007812 -5.359375 10.25 -5.359375 Z M 7.296875 -20.1875 C 6.929688 -20.1875 6.515625 -19.519531 6.046875 -18.1875 C 5.585938 -16.863281 5.179688 -15.21875 4.828125 -13.25 C 4.472656 -11.28125 4.28125 -9.390625 4.25 -7.578125 C 5.382812 -9.453125 6.285156 -11.328125 6.953125 -13.203125 C 7.628906 -15.085938 7.96875 -16.804688 7.96875 -18.359375 C 7.96875 -19.578125 7.742188 -20.1875 7.296875 -20.1875 Z M 7.296875 -20.1875 "/></g></g></g><g fill="#000000" fill-opacity="1"><g transform="translate(90.780757, 47.249995)"><g/></g></g><g fill="#de6e24" fill-opacity="1"><g transform="translate(97.142573, 47.249995)"><g><path d="M 7.203125 0.125 C 6.097656 0.125 5.097656 -0.144531 4.203125 -0.6875 C 3.316406 -1.238281 2.617188 -2.03125 2.109375 -3.0625 C 1.597656 -4.09375 1.34375 -5.3125 1.34375 -6.71875 C 1.34375 -9.15625 1.863281 -11.40625 2.90625 -13.46875 C 3.945312 -15.539062 5.484375 -17.207031 7.515625 -18.46875 C 9.546875 -19.726562 11.984375 -20.359375 14.828125 -20.359375 C 15.566406 -20.359375 16.351562 -20.300781 17.1875 -20.1875 C 18.03125 -20.070312 18.796875 -19.90625 19.484375 -19.6875 C 19.929688 -19.550781 20.15625 -19.226562 20.15625 -18.71875 C 20.15625 -18.300781 20 -17.90625 19.6875 -17.53125 C 19.375 -17.164062 19.007812 -16.984375 18.59375 -16.984375 C 18.46875 -16.984375 18.375 -16.992188 18.3125 -17.015625 C 17.476562 -17.203125 16.765625 -17.335938 16.171875 -17.421875 C 15.578125 -17.515625 14.953125 -17.5625 14.296875 -17.5625 C 12.265625 -17.5625 10.535156 -17.066406 9.109375 -16.078125 C 7.691406 -15.097656 6.628906 -13.800781 5.921875 -12.1875 C 5.222656 -10.570312 4.875 -8.828125 4.875 -6.953125 C 4.875 -5.597656 5.140625 -4.546875 5.671875 -3.796875 C 6.210938 -3.054688 6.914062 -2.6875 7.78125 -2.6875 C 8.75 -2.6875 9.601562 -3.085938 10.34375 -3.890625 C 11.082031 -4.691406 11.753906 -5.988281 12.359375 -7.78125 C 12.960938 -9.570312 13.5625 -12.003906 14.15625 -15.078125 C 14.25 -15.523438 14.441406 -15.828125 14.734375 -15.984375 C 15.023438 -16.140625 15.410156 -16.21875 15.890625 -16.21875 C 17.023438 -16.21875 17.59375 -15.851562 17.59375 -15.125 C 17.59375 -14.988281 17.566406 -14.828125 17.515625 -14.640625 C 17.097656 -13.085938 16.71875 -11.367188 16.375 -9.484375 C 16.03125 -7.609375 15.859375 -6.179688 15.859375 -5.203125 C 15.859375 -4.335938 15.984375 -3.707031 16.234375 -3.3125 C 16.492188 -2.925781 16.890625 -2.734375 17.421875 -2.734375 C 17.929688 -2.734375 18.414062 -2.90625 18.875 -3.25 C 19.34375 -3.59375 19.929688 -4.179688 20.640625 -5.015625 C 20.828125 -5.242188 21.039062 -5.359375 21.28125 -5.359375 C 21.488281 -5.359375 21.648438 -5.257812 21.765625 -5.0625 C 21.890625 -4.875 21.953125 -4.609375 21.953125 -4.265625 C 21.953125 -3.648438 21.800781 -3.15625 21.5 -2.78125 C 20.71875 -1.84375 19.953125 -1.125 19.203125 -0.625 C 18.453125 -0.125 17.53125 0.125 16.4375 0.125 C 15.320312 0.125 14.421875 -0.195312 13.734375 -0.84375 C 13.046875 -1.5 12.613281 -2.414062 12.4375 -3.59375 C 11.25 -1.113281 9.503906 0.125 7.203125 0.125 Z M 7.203125 0.125 "/></g></g></g><g fill="#de6e24" fill-opacity="1"><g transform="translate(115.997331, 47.249995)"><g><path d="M 10.25 -5.359375 C 10.457031 -5.359375 10.617188 -5.257812 10.734375 -5.0625 C 10.859375 -4.875 10.921875 -4.609375 10.921875 -4.265625 C 10.921875 -3.628906 10.769531 -3.132812 10.46875 -2.78125 C 9.78125 -1.9375 9.03125 -1.238281 8.21875 -0.6875 C 7.414062 -0.144531 6.5 0.125 5.46875 0.125 C 4.0625 0.125 3.015625 -0.515625 2.328125 -1.796875 C 1.648438 -3.078125 1.3125 -4.734375 1.3125 -6.765625 C 1.3125 -8.722656 1.5625 -10.945312 2.0625 -13.4375 C 2.570312 -15.9375 3.316406 -18.082031 4.296875 -19.875 C 5.285156 -21.664062 6.460938 -22.5625 7.828125 -22.5625 C 8.585938 -22.5625 9.1875 -22.203125 9.625 -21.484375 C 10.070312 -20.773438 10.296875 -19.757812 10.296875 -18.4375 C 10.296875 -16.53125 9.765625 -14.320312 8.703125 -11.8125 C 7.648438 -9.300781 6.222656 -6.8125 4.421875 -4.34375 C 4.523438 -3.6875 4.707031 -3.21875 4.96875 -2.9375 C 5.226562 -2.65625 5.5625 -2.515625 5.96875 -2.515625 C 6.625 -2.515625 7.203125 -2.703125 7.703125 -3.078125 C 8.203125 -3.453125 8.832031 -4.097656 9.59375 -5.015625 C 9.789062 -5.242188 10.007812 -5.359375 10.25 -5.359375 Z M 7.296875 -20.1875 C 6.929688 -20.1875 6.515625 -19.519531 6.046875 -18.1875 C 5.585938 -16.863281 5.179688 -15.21875 4.828125 -13.25 C 4.472656 -11.28125 4.28125 -9.390625 4.25 -7.578125 C 5.382812 -9.453125 6.285156 -11.328125 6.953125 -13.203125 C 7.628906 -15.085938 7.96875 -16.804688 7.96875 -18.359375 C 7.96875 -19.578125 7.742188 -20.1875 7.296875 -20.1875 Z M 7.296875 -20.1875 "/></g></g></g><g fill="#de6e24" fill-opacity="1"><g transform="translate(123.817502, 47.249995)"><g><path d="M 4.296875 -12.765625 C 3.617188 -12.765625 3.113281 -12.921875 2.78125 -13.234375 C 2.445312 -13.546875 2.28125 -13.984375 2.28125 -14.546875 C 2.28125 -15.109375 2.5 -15.578125 2.9375 -15.953125 C 3.375 -16.328125 3.921875 -16.515625 4.578125 -16.515625 C 5.171875 -16.515625 5.648438 -16.367188 6.015625 -16.078125 C 6.390625 -15.785156 6.578125 -15.378906 6.578125 -14.859375 C 6.578125 -14.210938 6.367188 -13.703125 5.953125 -13.328125 C 5.535156 -12.953125 4.984375 -12.765625 4.296875 -12.765625 Z M 4.109375 0.125 C 3.066406 0.125 2.304688 -0.242188 1.828125 -0.984375 C 1.359375 -1.722656 1.125 -2.695312 1.125 -3.90625 C 1.125 -4.625 1.21875 -5.546875 1.40625 -6.671875 C 1.59375 -7.804688 1.828125 -8.863281 2.109375 -9.84375 C 2.253906 -10.351562 2.445312 -10.703125 2.6875 -10.890625 C 2.925781 -11.085938 3.3125 -11.1875 3.84375 -11.1875 C 4.65625 -11.1875 5.0625 -10.914062 5.0625 -10.375 C 5.0625 -9.96875 4.910156 -9.035156 4.609375 -7.578125 C 4.222656 -5.816406 4.03125 -4.628906 4.03125 -4.015625 C 4.03125 -3.523438 4.09375 -3.148438 4.21875 -2.890625 C 4.351562 -2.640625 4.570312 -2.515625 4.875 -2.515625 C 5.15625 -2.515625 5.507812 -2.710938 5.9375 -3.109375 C 6.375 -3.515625 6.957031 -4.148438 7.6875 -5.015625 C 7.875 -5.242188 8.085938 -5.359375 8.328125 -5.359375 C 8.535156 -5.359375 8.695312 -5.257812 8.8125 -5.0625 C 8.9375 -4.875 9 -4.609375 9 -4.265625 C 9 -3.628906 8.847656 -3.132812 8.546875 -2.78125 C 6.960938 -0.84375 5.484375 0.125 4.109375 0.125 Z M 4.109375 0.125 "/></g></g></g></svg>